<svg width="25" height="25" viewBox="0 0 25 25" fill="none" xmlns="http://www.w3.org/2000/svg">
<path d="M24.8474 16.402C23.7632 19.477 21.5454 22.0216 18.6474 23.5157C15.7494 25.0099 12.3901 25.3405 9.25635 24.4402C6.12263 23.5398 3.4512 21.4764 1.78826 18.6719C0.125318 15.8673 -0.403517 12.5335 0.30988 9.35199C0.802663 7.24229 1.82085 5.29143 3.26979 3.68077C4.71873 2.07011 6.55139 0.851935 8.59738 0.139493C8.99691 -0.00951976 9.43099 -0.0399054 9.84738 0.051993C10.2638 0.130969 10.6494 0.325954 10.9599 0.614493C11.2634 0.904464 11.4803 1.27316 11.5863 1.67935C11.6922 2.08554 11.6831 2.5132 11.5599 2.91449C10.9872 4.61682 10.9523 6.45414 11.4599 8.17699C11.8244 9.45764 12.5092 10.6243 13.4496 11.5669C14.39 12.5095 15.5551 13.197 16.8349 13.5645C18.5527 14.0776 20.3878 14.0427 22.0849 13.4645C22.4935 13.3484 22.9263 13.3484 23.3349 13.4645C23.741 13.5733 24.1086 13.7938 24.3958 14.1009C24.683 14.408 24.8784 14.7895 24.9599 15.202C25.0322 15.6048 24.9933 16.0197 24.8474 16.402Z" fill="white"/>
</svg>
